# Blender 4.0.2
# www.blender.org
mtllib w_king.mtl
o King
v -0.582842 6.064275 0.582842
v -0.658679 6.007398 0.658676
v -0.000001 6.007398 0.931511
v -0.000000 6.064275 0.824263
v -0.000000 7.481133 1.326231
v -0.937787 7.481133 0.937787
v -0.824263 6.064275 -0.000000
v -0.931511 6.007398 -0.000000
v -0.699519 5.870085 0.699517
v -0.000001 5.870085 0.989268
v 0.658677 6.007398 0.658678
v 0.582842 6.064275 0.582842
v -1.326231 7.481133 -0.000000
v 0.937787 7.481133 0.937787
v -0.157758 7.730866 0.157758
v -0.000000 7.730866 0.223103
v -0.582842 6.064275 -0.582842
v -0.658678 6.007398 -0.658678
v -0.989268 5.870085 -0.000000
v -1.023826 5.632906 1.023823
v -0.000002 5.632906 1.447906
v 0.699517 5.870085 0.699519
v 0.931510 6.007398 0.000000
v 0.824263 6.064275 -0.000000
v -0.937787 7.481133 -0.937787
v -0.223103 7.730866 -0.000000
v 1.326231 7.481133 0.000000
v 0.157758 7.730866 0.157758
v 0.000000 6.064275 -0.824263
v -0.000000 6.007398 -0.931511
v -0.699518 5.870085 -0.699518
v -1.447907 5.632906 -0.000000
v -0.542928 5.411032 0.542925
v -0.000001 5.411032 0.767814
v 1.023824 5.632906 1.023825
v 0.989268 5.870085 0.000000
v 0.658677 6.007398 -0.658678
v 0.582842 6.064275 -0.582842
v 0.000000 7.481133 -1.326231
v -0.157758 7.730866 -0.157758
v 0.937787 7.481133 -0.937787
v 0.223103 7.730866 -0.000000
v -0.000000 5.870085 -0.989268
v -1.023824 5.632906 -1.023825
v -0.767814 5.411032 -0.000000
v -0.794916 1.958073 0.794913
v -0.000002 1.958073 1.124178
v 0.542926 5.411032 0.542927
v 1.447906 5.632906 0.000000
v 0.699518 5.870085 -0.699518
v -0.000000 7.730866 -0.223103
v 0.157758 7.730866 -0.157758
v -0.000000 5.632906 -1.447906
v -0.542927 5.411032 -0.542927
v -1.124179 1.958073 -0.000000
v -0.000002 1.866160 1.387390
v -0.981035 1.866160 0.981031
v 0.794913 1.958073 0.794915
v 0.767813 5.411032 0.000000
v 1.023824 5.632906 -1.023824
v -0.000000 5.411032 -0.767814
v -0.794914 1.958073 -0.794914
v -1.387390 1.866160 -0.000000
v -0.000002 1.600718 1.543500
v -1.091421 1.600718 1.091418
v 0.981032 1.866160 0.981034
v 1.124178 1.958073 0.000000
v 0.542926 5.411032 -0.542927
v -0.000000 1.958073 -1.124179
v -0.981033 1.866160 -0.981033
v -1.543500 1.600718 -0.000000
v -0.000002 1.194015 2.128641
v -1.505178 1.194015 1.505174
v 1.091418 1.600718 1.091420
v 1.387390 1.866160 0.000000
v 0.794914 1.958073 -0.794914
v -0.000000 1.866160 -1.387390
v -1.091419 1.600718 -1.091420
v -2.128641 1.194015 -0.000000
v -0.000002 0.697051 1.716001
v -1.213398 0.697051 1.213394
v 1.505175 1.194015 1.505177
v 1.543500 1.600718 0.000001
v 0.981033 1.866160 -0.981033
v -0.000000 1.600718 -1.543500
v -1.505176 1.194015 -1.505176
v -1.716002 0.697051 -0.000000
v -0.000002 0.573722 1.994006
v -1.409978 0.573722 1.409974
v 1.213395 0.697051 1.213397
v 2.128641 1.194015 0.000001
v 1.091419 1.600718 -1.091419
v -0.000000 1.194015 -2.128640
v -1.213396 0.697051 -1.213396
v -1.994006 0.573722 -0.000000
v -0.000002 -0.000000 2.250000
v -1.590992 -0.000000 1.590988
v 1.409975 0.573722 1.409977
v 1.716001 0.697051 0.000001
v 1.505176 1.194015 -1.505176
v -0.000000 0.697051 -1.716001
v -1.409975 0.573722 -1.409976
v -2.250000 -0.000000 -0.000000
v 2.250000 -0.000000 0.000001
v 1.590989 -0.000000 1.590991
v -1.590990 -0.000000 -1.590990
v -0.000000 -0.000000 -2.250000
v 1.590990 -0.000000 -1.590990
v 1.994007 0.573722 0.000001
v 1.213396 0.697051 -1.213396
v -0.000000 0.573722 -1.994007
v 1.409976 0.573722 -1.409975
v -0.000000 7.733693 0.235848
v -0.000000 7.860001 0.333539
v -0.235848 7.860001 0.235848
v -0.166770 7.733693 0.166769
v 0.166769 7.733693 0.166769
v 0.235848 7.860001 0.235848
v -0.000000 8.660108 0.209055
v -0.147824 8.660108 0.147824
v -0.333539 7.860001 -0.000000
v -0.235848 7.733693 -0.000000
v 0.235848 7.733693 -0.000000
v 0.333539 7.860001 0.000000
v 0.147824 8.660108 0.147824
v 0.000000 8.814966 -0.000000
v -0.209055 8.660108 -0.000000
v -0.235848 7.860001 -0.235848
v -0.166769 7.733693 -0.166770
v 0.166769 7.733693 -0.166769
v 0.235848 7.860001 -0.235848
v 0.209055 8.660108 -0.000000
v -0.147824 8.660108 -0.147824
v 0.000000 7.860001 -0.333539
v 0.000000 7.733693 -0.235848
v 0.147824 8.660108 -0.147824
v 0.000000 8.660108 -0.209055
v -0.000000 7.963639 0.202064
v -0.142881 7.963639 0.142881
v 0.142881 7.963639 0.142881
v -0.202064 7.963639 -0.000000
v 0.142881 7.963639 -0.142881
v 0.202064 7.963639 0.000000
v -0.142881 7.963639 -0.142881
v 0.000000 7.963639 -0.202064
v -0.000000 8.204697 0.203681
v -0.000000 8.263991 0.205079
v -0.000000 8.403285 0.206477
v -0.000000 8.461561 0.207876
v 0.144024 8.124698 0.144024
v 0.145013 8.263991 0.145013
v 0.146001 8.403285 0.146001
v 0.146990 8.542579 0.146990
v 0.144024 8.204697 -0.144024
v 0.145013 8.263991 -0.145013
v 0.146002 8.403285 -0.146002
v 0.146990 8.461561 -0.146990
v -0.144024 8.124698 -0.144024
v -0.145013 8.263991 -0.145013
v -0.146002 8.403285 -0.146002
v -0.146990 8.542579 -0.146990
v -0.146990 8.461562 0.146990
v -0.146002 8.403285 0.146001
v -0.145013 8.263991 0.145013
v -0.144024 8.204698 0.144024
v -0.207876 8.542580 -0.000000
v -0.206477 8.403285 -0.000000
v -0.205079 8.263991 -0.000000
v -0.203681 8.124698 -0.000000
v 0.207876 8.542580 -0.000000
v 0.206477 8.403285 -0.000000
v 0.205079 8.263991 -0.000000
v 0.203681 8.124698 -0.000000
v 0.000000 8.461562 -0.207876
v 0.000000 8.403285 -0.206477
v 0.000000 8.263991 -0.205079
v 0.000000 8.204698 -0.203681
v -0.075719 8.122850 0.386482
v -0.075719 8.262145 0.387880
v -0.075719 8.401438 0.389278
v -0.075719 8.540731 0.390676
v 0.219743 8.122850 -0.326825
v 0.220731 8.262145 -0.327814
v 0.221720 8.401438 -0.328802
v 0.222709 8.540731 -0.329791
v -0.222709 8.540732 0.329791
v -0.221720 8.401438 0.328802
v -0.220731 8.262145 0.327814
v -0.219743 8.122851 0.326825
v 0.075719 8.540732 -0.390676
v 0.075719 8.401438 -0.389278
v 0.075719 8.262145 -0.387880
v 0.075719 8.122851 -0.386482
v -0.205137 8.044168 0.205137
v -0.290108 8.044168 -0.000000
v 0.290107 8.044168 0.000000
v 0.000000 8.044168 -0.290108
v -0.000000 8.044168 0.290108
v 0.205137 8.044168 0.205137
v 0.205137 8.044168 -0.205137
v -0.205137 8.044168 -0.205137
v -0.000000 8.638739 0.281935
v 0.199358 8.638739 0.199358
v 0.199358 8.638739 -0.199358
v -0.199358 8.638739 -0.199358
v -0.199358 8.638739 0.199358
v -0.281935 8.638739 -0.000000
v 0.281935 8.638739 -0.000000
v 0.000000 8.638739 -0.281935
vn -0.6387 0.4292 0.6387
vn -0.0000 0.6356 0.7720
vn -0.0000 0.4292 0.9032
vn -0.0000 0.4167 0.9091
vn -0.6428 0.4167 0.6428
vn -0.9032 0.4292 -0.0000
vn -0.5459 0.6356 0.5459
vn -0.4886 0.7228 0.4886
vn 0.5459 0.6356 0.5459
vn 0.6387 0.4292 0.6387
vn -0.9091 0.4167 -0.0000
vn -0.0000 -0.0029 1.0000
vn -0.7071 -0.0029 0.7071
vn -0.5459 0.6356 -0.5459
vn -0.6387 0.4292 -0.6387
vn -0.7720 0.6356 -0.0000
vn -0.6910 0.7228 -0.0000
vn -0.7055 -0.0665 0.7055
vn -0.0000 0.7228 0.6910
vn 0.4886 0.7228 0.4886
vn 0.7720 0.6356 -0.0000
vn 0.9032 0.4292 -0.0000
vn -0.6428 0.4167 -0.6428
vn -1.0000 -0.0029 -0.0000
vn 0.6428 0.4167 0.6428
vn 0.7071 -0.0029 0.7071
vn -0.0000 0.6356 -0.7720
vn -0.0000 0.4292 -0.9032
vn -0.4886 0.7228 -0.4886
vn -0.9978 -0.0665 -0.0000
vn -0.0000 -0.6268 0.7792
vn -0.5510 -0.6268 0.5510
vn -0.0000 -0.0665 0.9978
vn 0.6910 0.7228 -0.0000
vn 0.6387 0.4292 -0.6387
vn -0.0000 0.4167 -0.9091
vn -0.7071 -0.0029 -0.7071
vn 0.9091 0.4167 -0.0000
vn 1.0000 -0.0029 -0.0000
vn 0.5459 0.6356 -0.5459
vn -0.0000 0.7228 -0.6910
vn -0.7055 -0.0665 -0.7055
vn -0.7792 -0.6268 -0.0000
vn -0.0000 0.6914 0.7225
vn -0.5109 0.6914 0.5109
vn 0.5510 -0.6268 0.5510
vn 0.7055 -0.0665 0.7055
vn 0.4886 0.7228 -0.4886
vn 0.6428 0.4167 -0.6428
vn -0.0000 -0.0029 -1.0000
vn 0.7071 -0.0029 -0.7071
vn -0.0000 -0.0665 -0.9978
vn -0.5510 -0.6268 -0.5510
vn -0.7225 0.6914 -0.0000
vn -0.4816 0.7323 0.4816
vn -0.0000 0.7323 0.6810
vn 0.5109 0.6914 0.5109
vn 0.7792 -0.6268 -0.0000
vn 0.7055 -0.0665 -0.7055
vn 0.9978 -0.0665 -0.0000
vn -0.0000 -0.6268 -0.7792
vn -0.5109 0.6914 -0.5109
vn -0.6810 0.7323 -0.0000
vn -0.5000 0.7071 0.5000
vn -0.0000 0.7071 0.7071
vn 0.4816 0.7323 0.4816
vn 0.7225 0.6914 -0.0000
vn 0.5510 -0.6268 -0.5510
vn -0.0000 0.6914 -0.7225
vn -0.4816 0.7323 -0.4816
vn -0.7071 0.7071 -0.0000
vn -0.7024 0.1149 0.7024
vn -0.0000 0.1149 0.9934
vn 0.5000 0.7071 0.5000
vn 0.6810 0.7323 -0.0000
vn 0.5109 0.6914 -0.5109
vn -0.0000 0.7323 -0.6810
vn -0.5000 0.7071 -0.5000
vn -0.9934 0.1149 -0.0000
vn -0.0000 0.2857 0.9583
vn -0.6776 0.2857 0.6776
vn 0.7024 0.1149 0.7024
vn 0.7071 0.7071 -0.0000
vn 0.4816 0.7323 -0.4816
vn -0.0000 0.7071 -0.7071
vn -0.7024 0.1149 -0.7024
vn -0.9583 0.2857 -0.0000
vn -0.5277 0.6657 0.5277
vn -0.0000 0.6657 0.7463
vn 0.6776 0.2857 0.6776
vn 0.9934 0.1149 -0.0000
vn 0.5000 0.7071 -0.5000
vn -0.0000 0.1149 -0.9934
vn -0.6776 0.2857 -0.6776
vn -0.7463 0.6657 -0.0000
vn -0.6262 -0.4645 0.6262
vn -0.0000 -0.4645 0.8856
vn 0.5277 0.6657 0.5277
vn 0.9583 0.2857 -0.0000
vn 0.7024 0.1149 -0.7024
vn -0.0000 0.2857 -0.9583
vn -0.5277 0.6657 -0.5277
vn -0.8856 -0.4645 -0.0000
vn -0.6262 -0.4645 -0.6262
vn 0.6262 -0.4645 -0.6262
vn 0.6262 -0.4645 0.6262
vn 0.7463 0.6657 -0.0000
vn 0.6776 0.2857 -0.6776
vn -0.0000 0.6657 -0.7463
vn 0.8856 -0.4645 -0.0000
vn -0.0000 -0.4645 -0.8856
vn 0.5277 0.6657 -0.5277
vn -0.0000 -0.8065 0.5913
vn -0.7032 0.1048 0.7032
vn -0.4181 -0.8065 0.4181
vn 0.7032 0.1048 0.7032
vn 0.4181 -0.8065 0.4181
vn -0.0000 0.9125 0.4090
vn -0.6871 0.3530 0.6351
vn 0.0367 0.3530 0.9349
vn -0.9945 0.1048 -0.0000
vn -0.5913 -0.8065 -0.0000
vn 0.9945 0.1048 -0.0000
vn 0.5913 -0.8065 -0.0000
vn 0.6827 0.2607 0.6826
vn -0.0000 1.0000 -0.0000
vn -0.2892 0.9125 0.2892
vn -0.9654 0.2607 -0.0000
vn -0.4181 -0.8065 -0.4181
vn 0.7032 0.1048 -0.7032
vn 0.4181 -0.8065 -0.4181
vn 0.4090 0.9125 -0.0000
vn 0.9654 0.2607 -0.0000
vn 0.2892 0.9125 0.2892
vn -0.4090 0.9125 -0.0000
vn -0.6827 0.2607 -0.6826
vn -0.7032 0.1048 -0.7032
vn -0.0000 -0.8065 -0.5913
vn -0.0000 0.1048 -0.9945
vn 0.2892 0.9125 -0.2892
vn 0.6871 0.3530 -0.6351
vn -0.2892 0.9125 -0.2892
vn -0.0367 0.3530 -0.9349
vn -0.0000 0.9125 -0.4090
vn -0.0000 0.0457 -0.9990
vn -0.7064 0.0457 -0.7064
vn 0.7064 0.0457 -0.7064
vn -0.9990 0.0457 -0.0000
vn 0.9990 0.0457 -0.0000
vn -0.7064 0.0457 0.7064
vn -0.0000 0.0457 0.9990
vn -0.0000 0.1048 0.9945
vn -0.0363 -0.1219 -0.9919
vn 0.9766 -0.0330 -0.2125
vn 0.7270 -0.1219 -0.6757
vn 0.9240 -0.0096 -0.3823
vn 0.9999 -0.0119 0.0012
vn -0.5403 -0.0331 -0.8408
vn -0.3830 -0.0096 -0.9237
vn -0.3420 -0.6890 -0.6389
vn 0.5403 -0.0330 0.8408
vn 0.3830 -0.0096 0.9237
vn 0.3420 -0.6890 0.6389
vn -0.6592 0.4311 -0.6162
vn -0.7071 -0.0039 -0.7071
vn -0.7064 -0.0108 -0.7077
vn -0.7077 -0.0108 -0.7064
vn -0.7079 -0.0119 -0.7062
vn -0.5284 0.0659 -0.8464
vn -0.7062 -0.0121 -0.7079
vn 0.9018 0.4311 0.0304
vn 1.0000 -0.0039 -0.0000
vn 0.9999 -0.0108 -0.0009
vn 0.9999 -0.0121 -0.0012
vn 0.9721 0.0659 -0.2249
vn 0.9999 -0.0108 0.0009
vn -1.0000 -0.0039 -0.0000
vn -0.9018 0.4311 -0.0304
vn -0.9999 -0.0108 -0.0009
vn -0.9999 -0.0108 0.0009
vn -0.6813 -0.3500 -0.6429
vn 0.6592 0.4311 0.6162
vn 0.7071 -0.0039 0.7071
vn 0.7064 -0.0108 0.7077
vn 0.6813 -0.3500 0.6429
vn 0.7077 -0.0108 0.7064
vn -0.7270 -0.1219 0.6757
vn -0.9766 -0.0330 0.2125
vn -0.9999 -0.0121 0.0012
vn -0.9999 -0.0119 -0.0012
vn -0.9721 0.0659 0.2249
vn 0.0363 -0.1219 0.9919
vn 0.7079 -0.0119 0.7062
vn 0.5284 0.0659 0.8464
vn 0.7062 -0.0121 0.7079
vn -0.6937 -0.6890 0.2100
vn -0.3824 -0.0096 -0.9239
vn 0.6937 -0.6890 -0.2100
vn 0.6993 0.6805 -0.2188
vn 0.9237 -0.0096 -0.3829
vn 0.3824 -0.0096 0.9239
vn -0.9240 -0.0096 0.3823
vn 0.3398 0.6805 0.6492
vn -0.9237 -0.0096 0.3829
vn -0.6993 0.6805 0.2188
vn -0.3398 0.6805 -0.6492
vn 0.7064 0.0457 0.7064
vn 0.9363 -0.3500 0.0272
vn -0.9363 -0.3500 -0.0272
s 1
usemtl White_Pieces
f 1//1 3//2 4//3
f 1//1 5//4 6//5
f 7//6 2//7 1//1
f 9//8 3//2 2//7
f 4//3 11//9 12//10
f 7//6 6//5 13//11
f 12//10 5//4 4//3
f 6//5 16//12 15//13
f 18//14 7//6 17//15
f 9//8 8//16 19//17
f 20//18 10//19 9//8
f 22//20 3//2 10//19
f 12//10 23//21 24//22
f 7//6 25//23 17//15
f 26//24 6//5 15//13
f 24//22 14//25 12//10
f 16//12 14//25 28//26
f 30//27 17//15 29//28
f 19//17 18//14 31//29
f 20//18 19//17 32//30
f 34//31 20//18 33//32
f 21//33 22//20 10//19
f 36//34 11//9 22//20
f 23//21 38//35 24//22
f 17//15 39//36 29//28
f 25//23 26//24 40//37
f 38//35 27//38 24//22
f 28//26 27//38 42//39
f 37//40 29//28 38//35
f 31//29 30//27 43//41
f 32//30 31//29 44//42
f 45//43 20//18 32//30
f 47//44 33//32 46//45
f 48//46 21//33 34//31
f 35//47 36//34 22//20
f 50//48 23//21 36//34
f 29//28 41//49 38//35
f 39//36 40//37 51//50
f 27//38 52//51 42//39
f 43//41 37//40 50//48
f 44//42 43//41 53//52
f 54//53 32//30 44//42
f 46//45 45//43 55//54
f 47//44 57//55 56//56
f 58//57 34//31 47//44
f 59//58 35//47 48//46
f 60//59 36//34 49//60
f 41//49 51//50 52//51
f 53//52 50//48 60//59
f 54//53 53//52 61//61
f 62//62 45//43 54//53
f 46//45 63//63 57//55
f 56//56 65//64 64//65
f 58//57 56//56 66//66
f 67//67 48//46 58//57
f 59//58 60//59 49//60
f 68//68 53//52 60//59
f 69//69 54//53 61//61
f 63//63 62//62 70//70
f 57//55 71//71 65//64
f 64//65 73//72 72//73
f 74//74 56//56 64//65
f 67//67 66//66 75//75
f 76//76 59//58 67//67
f 69//69 68//68 76//76
f 62//62 77//77 70//70
f 63//63 78//78 71//71
f 65//64 79//79 73//72
f 80//80 73//72 81//81
f 74//74 72//73 82//82
f 75//75 74//74 83//83
f 76//76 75//75 84//84
f 69//69 84//84 77//77
f 70//70 85//85 78//78
f 71//71 86//86 79//79
f 81//81 79//79 87//87
f 80//80 89//88 88//89
f 82//82 80//80 90//90
f 91//91 74//74 82//82
f 84//84 83//83 92//92
f 77//77 92//92 85//85
f 78//78 93//93 86//86
f 79//79 94//94 87//87
f 81//81 95//95 89//88
f 88//89 97//96 96//97
f 90//90 88//89 98//98
f 91//91 90//90 99//99
f 100//100 83//83 91//91
f 93//93 92//92 100//100
f 86//86 101//101 94//94
f 95//95 94//94 102//102
f 89//88 103//103 97//96
f 97//96 106//104 108//105
f 98//98 96//97 105//106
f 99//99 98//98 109//107
f 100//100 99//99 110//108
f 93//93 110//108 101//101
f 102//102 101//101 111//109
f 95//95 106//104 103//103
f 108//105 109//107 104//110
f 104//110 98//98 105//106
f 102//102 107//111 106//104
f 107//111 112//112 108//105
f 112//112 99//99 109//107
f 101//101 112//112 111//109
f 113//113 115//114 116//115
f 16//12 116//115 15//13
f 118//116 113//113 117//117
f 119//118 206//119 202//120
f 116//115 121//121 122//122
f 28//26 113//113 16//12
f 15//13 122//122 26//24
f 124//123 117//117 123//124
f 203//125 119//118 202//120
f 119//118 126//126 120//127
f 120//127 207//128 206//119
f 121//121 129//129 122//122
f 123//124 28//26 42//39
f 26//24 129//129 40//37
f 131//130 123//124 130//131
f 132//132 203//125 208//133
f 125//134 126//126 119//118
f 120//127 126//126 127//135
f 127//135 205//136 207//128
f 128//137 135//138 129//129
f 130//131 42//39 52//51
f 129//129 51//50 40//37
f 134//139 130//131 135//138
f 136//140 208//133 204//141
f 132//132 126//126 125//134
f 127//135 126//126 133//142
f 133//142 209//143 205//136
f 135//138 52//51 51//50
f 137//144 204//141 209//143
f 136//140 126//126 132//132
f 133//142 126//126 137//144
f 137//144 126//126 136//140
f 145//145 131//130 134//139
f 144//146 134//139 128//137
f 142//147 124//123 131//130
f 141//148 128//137 121//121
f 143//149 118//116 124//123
f 139//150 121//121 115//114
f 118//116 138//151 114//152
f 114//152 139//150 115//114
f 197//153 154//154 200//155
f 154//154 183//156 155//157
f 177//158 192//159 193//160
f 146//161 179//162 178//163
f 158//164 197//153 201//165
f 159//166 177//158 158//164
f 160//167 176//168 159//166
f 160//167 174//169 175//170
f 200//155 173//171 196//172
f 154//154 172//173 173//171
f 156//174 172//173 155//157
f 157//175 171//176 156//174
f 195//177 158//164 201//165
f 169//178 159//166 158//164
f 167//179 159//166 168//180
f 167//179 161//181 160//167
f 196//172 150//182 199//183
f 173//171 151//184 150//182
f 171//176 151//184 172//173
f 171//176 153//185 152//186
f 194//187 169//178 195//177
f 165//188 168//180 169//178
f 163//189 168//180 164//190
f 162//191 167//179 163//189
f 150//182 198//192 199//183
f 151//184 146//161 150//182
f 152//186 147//193 151//184
f 152//186 149//194 148//195
f 146//161 194//187 198//192
f 146//161 189//196 165//188
f 175//170 192//159 176//168
f 174//169 191//197 175//170
f 193//160 183//156 182//198
f 191//197 183//156 192//159
f 191//197 185//199 184//200
f 179//162 189//196 178//163
f 180//201 188//202 179//162
f 181//203 187//204 180//201
f 148//195 179//162 147//193
f 162//191 187//204 186//205
f 154//154 193//160 182//198
f 156//174 183//156 184//200
f 149//194 180//201 148//195
f 163//189 188//202 187//204
f 157//175 184//200 185//199
f 162//191 181//203 149//194
f 165//188 188//202 164//190
f 157//175 190//206 174//169
f 138//151 194//187 139//150
f 199//183 138//151 140//207
f 194//187 141//148 139//150
f 196//172 140//207 143//149
f 141//148 201//165 144//146
f 142//147 196//172 143//149
f 201//165 145//145 144//146
f 145//145 200//155 142//147
f 174//169 204//141 157//175
f 161//181 209//143 174//169
f 204//141 170//208 157//175
f 166//209 205//136 161//181
f 170//208 203//125 153//185
f 206//119 166//209 162//191
f 153//185 202//120 149//194
f 202//120 162//191 149//194
f 1//1 2//7 3//2
f 1//1 4//3 5//4
f 7//6 8//16 2//7
f 9//8 10//19 3//2
f 4//3 3//2 11//9
f 7//6 1//1 6//5
f 12//10 14//25 5//4
f 6//5 5//4 16//12
f 18//14 8//16 7//6
f 9//8 2//7 8//16
f 20//18 21//33 10//19
f 22//20 11//9 3//2
f 12//10 11//9 23//21
f 7//6 13//11 25//23
f 26//24 13//11 6//5
f 24//22 27//38 14//25
f 16//12 5//4 14//25
f 30//27 18//14 17//15
f 19//17 8//16 18//14
f 20//18 9//8 19//17
f 34//31 21//33 20//18
f 21//33 35//47 22//20
f 36//34 23//21 11//9
f 23//21 37//40 38//35
f 17//15 25//23 39//36
f 25//23 13//11 26//24
f 38//35 41//49 27//38
f 28//26 14//25 27//38
f 37//40 30//27 29//28
f 31//29 18//14 30//27
f 32//30 19//17 31//29
f 45//43 33//32 20//18
f 47//44 34//31 33//32
f 48//46 35//47 21//33
f 35//47 49//60 36//34
f 50//48 37//40 23//21
f 29//28 39//36 41//49
f 39//36 25//23 40//37
f 27//38 41//49 52//51
f 43//41 30//27 37//40
f 44//42 31//29 43//41
f 54//53 45//43 32//30
f 46//45 33//32 45//43
f 47//44 46//45 57//55
f 58//57 48//46 34//31
f 59//58 49//60 35//47
f 60//59 50//48 36//34
f 41//49 39//36 51//50
f 53//52 43//41 50//48
f 54//53 44//42 53//52
f 62//62 55//54 45//43
f 46//45 55//54 63//63
f 56//56 57//55 65//64
f 58//57 47//44 56//56
f 67//67 59//58 48//46
f 59//58 68//68 60//59
f 68//68 61//61 53//52
f 69//69 62//62 54//53
f 63//63 55//54 62//62
f 57//55 63//63 71//71
f 64//65 65//64 73//72
f 74//74 66//66 56//56
f 67//67 58//57 66//66
f 76//76 68//68 59//58
f 69//69 61//61 68//68
f 62//62 69//69 77//77
f 63//63 70//70 78//78
f 65//64 71//71 79//79
f 80//80 72//73 73//72
f 74//74 64//65 72//73
f 75//75 66//66 74//74
f 76//76 67//67 75//75
f 69//69 76//76 84//84
f 70//70 77//77 85//85
f 71//71 78//78 86//86
f 81//81 73//72 79//79
f 80//80 81//81 89//88
f 82//82 72//73 80//80
f 91//91 83//83 74//74
f 84//84 75//75 83//83
f 77//77 84//84 92//92
f 78//78 85//85 93//93
f 79//79 86//86 94//94
f 81//81 87//87 95//95
f 88//89 89//88 97//96
f 90//90 80//80 88//89
f 91//91 82//82 90//90
f 100//100 92//92 83//83
f 93//93 85//85 92//92
f 86//86 93//93 101//101
f 95//95 87//87 94//94
f 89//88 95//95 103//103
f 108//105 104//110 105//106
f 105//106 96//97 97//96
f 97//96 103//103 106//104
f 106//104 107//111 108//105
f 108//105 105//106 97//96
f 98//98 88//89 96//97
f 99//99 90//90 98//98
f 100//100 91//91 99//99
f 93//93 100//100 110//108
f 102//102 94//94 101//101
f 95//95 102//102 106//104
f 108//105 112//112 109//107
f 104//110 109//107 98//98
f 102//102 111//109 107//111
f 107//111 111//109 112//112
f 112//112 110//108 99//99
f 101//101 110//108 112//112
f 113//113 114//152 115//114
f 16//12 113//113 116//115
f 118//116 114//152 113//113
f 119//118 120//127 206//119
f 116//115 115//114 121//121
f 28//26 117//117 113//113
f 15//13 116//115 122//122
f 124//123 118//116 117//117
f 203//125 125//134 119//118
f 120//127 127//135 207//128
f 121//121 128//137 129//129
f 123//124 117//117 28//26
f 26//24 122//122 129//129
f 131//130 124//123 123//124
f 132//132 125//134 203//125
f 127//135 133//142 205//136
f 128//137 134//139 135//138
f 130//131 123//124 42//39
f 129//129 135//138 51//50
f 134//139 131//130 130//131
f 136//140 132//132 208//133
f 133//142 137//144 209//143
f 135//138 130//131 52//51
f 137//144 136//140 204//141
f 145//145 142//147 131//130
f 144//146 145//145 134//139
f 142//147 143//149 124//123
f 141//148 144//146 128//137
f 143//149 140//207 118//116
f 139//150 141//148 121//121
f 118//116 140//207 138//151
f 114//152 138//151 139//150
f 197//153 177//158 154//154
f 154//154 182//198 183//156
f 177//158 176//168 192//159
f 146//161 147//193 179//162
f 158//164 177//158 197//153
f 159//166 176//168 177//158
f 160//167 175//170 176//168
f 160//167 161//181 174//169
f 200//155 154//154 173//171
f 154//154 155//157 172//173
f 156//174 171//176 172//173
f 157//175 170//208 171//176
f 195//177 169//178 158//164
f 169//178 168//180 159//166
f 167//179 160//167 159//166
f 167//179 166//209 161//181
f 196//172 173//171 150//182
f 173//171 172//173 151//184
f 171//176 152//186 151//184
f 171//176 170//208 153//185
f 194//187 165//188 169//178
f 165//188 164//190 168//180
f 163//189 167//179 168//180
f 162//191 166//209 167//179
f 150//182 146//161 198//192
f 151//184 147//193 146//161
f 152//186 148//195 147//193
f 152//186 153//185 149//194
f 146//161 165//188 194//187
f 146//161 178//163 189//196
f 175//170 191//197 192//159
f 174//169 190//206 191//197
f 193//160 192//159 183//156
f 191//197 184//200 183//156
f 191//197 190//206 185//199
f 179//162 188//202 189//196
f 180//201 187//204 188//202
f 181//203 186//205 187//204
f 148//195 180//201 179//162
f 162//191 163//189 187//204
f 154//154 177//158 193//160
f 156//174 155//157 183//156
f 149//194 181//203 180//201
f 163//189 164//190 188//202
f 157//175 156//174 184//200
f 162//191 186//205 181//203
f 165//188 189//196 188//202
f 157//175 185//199 190//206
f 138//151 198//192 194//187
f 199//183 198//192 138//151
f 194//187 195//177 141//148
f 196//172 199//183 140//207
f 141//148 195//177 201//165
f 142//147 200//155 196//172
f 201//165 197//153 145//145
f 145//145 197//153 200//155
f 174//169 209//143 204//141
f 161//181 205//136 209//143
f 204//141 208//133 170//208
f 166//209 207//128 205//136
f 170//208 208//133 203//125
f 206//119 207//128 166//209
f 153//185 203//125 202//120
f 202//120 206//119 162//191
