# Blender 4.0.2
# www.blender.org
mtllib w_king.mtl
o King
v -0.582842 6.064275 0.582842
v -0.658679 6.007398 0.658676
v -0.000001 6.007398 0.931511
v -0.000000 6.064275 0.824263
v -0.000000 7.481133 1.326231
v -0.937787 7.481133 0.937787
v -0.824263 6.064275 -0.000000
v -0.931511 6.007398 -0.000000
v -0.699519 5.870085 0.699517
v -0.000001 5.870085 0.989268
v 0.658677 6.007398 0.658678
v 0.582842 6.064275 0.582842
v -1.326231 7.481133 -0.000000
v 0.937787 7.481133 0.937787
v -0.157758 7.730866 0.157758
v -0.000000 7.730866 0.223103
v -0.582842 6.064275 -0.582842
v -0.658678 6.007398 -0.658678
v -0.989268 5.870085 -0.000000
v -1.023826 5.632906 1.023823
v -0.000002 5.632906 1.447906
v 0.699517 5.870085 0.699519
v 0.931510 6.007398 0.000000
v 0.824263 6.064275 -0.000000
v -0.937787 7.481133 -0.937787
v -0.223103 7.730866 -0.000000
v 1.326231 7.481133 0.000000
v 0.157758 7.730866 0.157758
v 0.000000 6.064275 -0.824263
v -0.000000 6.007398 -0.931511
v -0.699518 5.870085 -0.699518
v -1.447907 5.632906 -0.000000
v -0.542928 5.411032 0.542925
v -0.000001 5.411032 0.767814
v 1.023824 5.632906 1.023825
v 0.989268 5.870085 0.000000
v 0.658677 6.007398 -0.658678
v 0.582842 6.064275 -0.582842
v 0.000000 7.481133 -1.326231
v -0.157758 7.730866 -0.157758
v 0.937787 7.481133 -0.937787
v 0.223103 7.730866 -0.000000
v -0.000000 5.870085 -0.989268
v -1.023824 5.632906 -1.023825
v -0.767814 5.411032 -0.000000
v -0.794916 1.958073 0.794913
v -0.000002 1.958073 1.124178
v 0.542926 5.411032 0.542927
v 1.447906 5.632906 0.000000
v 0.699518 5.870085 -0.699518
v -0.000000 7.730866 -0.223103
v 0.157758 7.730866 -0.157758
v -0.000000 5.632906 -1.447906
v -0.542927 5.411032 -0.542927
v -1.124179 1.958073 -0.000000
v -0.000002 1.866160 1.387390
v -0.981035 1.866160 0.981031
v 0.794913 1.958073 0.794915
v 0.767813 5.411032 0.000000
v 1.023824 5.632906 -1.023824
v -0.000000 5.411032 -0.767814
v -0.794914 1.958073 -0.794914
v -1.387390 1.866160 -0.000000
v -0.000002 1.600718 1.543500
v -1.091421 1.600718 1.091418
v 0.981032 1.866160 0.981034
v 1.124178 1.958073 0.000000
v 0.542926 5.411032 -0.542927
v -0.000000 1.958073 -1.124179
v -0.981033 1.866160 -0.981033
v -1.543500 1.600718 -0.000000
v -0.000002 1.194015 2.128641
v -1.505178 1.194015 1.505174
v 1.091418 1.600718 1.091420
v 1.387390 1.866160 0.000000
v 0.794914 1.958073 -0.794914
v -0.000000 1.866160 -1.387390
v -1.091419 1.600718 -1.091420
v -2.128641 1.194015 -0.000000
v -0.000002 0.697051 1.716001
v -1.213398 0.697051 1.213394
v 1.505175 1.194015 1.505177
v 1.543500 1.600718 0.000001
v 0.981033 1.866160 -0.981033
v -0.000000 1.600718 -1.543500
v -1.505176 1.194015 -1.505176
v -1.716002 0.697051 -0.000000
v -0.000002 0.573722 1.994006
v -1.409978 0.573722 1.409974
v 1.213395 0.697051 1.213397
v 2.128641 1.194015 0.000001
v 1.091419 1.600718 -1.091419
v -0.000000 1.194015 -2.128640
v -1.213396 0.697051 -1.213396
v -1.994006 0.573722 -0.000000
v -0.000002 -0.000000 2.250000
v -1.590992 -0.000000 1.590988
v 1.409975 0.573722 1.409977
v 1.716001 0.697051 0.000001
v 1.505176 1.194015 -1.505176
v -0.000000 0.697051 -1.716001
v -1.409975 0.573722 -1.409976
v -2.250000 -0.000000 -0.000000
v 2.250000 -0.000000 0.000001
v 1.590989 -0.000000 1.590991
v -1.590990 -0.000000 -1.590990
v -0.000000 -0.000000 -2.250000
v 1.590990 -0.000000 -1.590990
v 1.994007 0.573722 0.000001
v 1.213396 0.697051 -1.213396
v -0.000000 0.573722 -1.994007
v 1.409976 0.573722 -1.409975
v -0.000000 7.733693 0.235848
v -0.000000 7.860001 0.333539
v -0.235848 7.860001 0.235848
v -0.166770 7.733693 0.166769
v 0.166769 7.733693 0.166769
v 0.235848 7.860001 0.235848
v -0.000000 8.660108 0.209055
v -0.147824 8.660108 0.147824
v -0.333539 7.860001 -0.000000
v -0.235848 7.733693 -0.000000
v 0.235848 7.733693 -0.000000
v 0.333539 7.860001 0.000000
v 0.147824 8.660108 0.147824
v 0.000000 8.814966 -0.000000
v -0.209055 8.660108 -0.000000
v -0.235848 7.860001 -0.235848
v -0.166769 7.733693 -0.166770
v 0.166769 7.733693 -0.166769
v 0.235848 7.860001 -0.235848
v 0.209055 8.660108 -0.000000
v -0.147824 8.660108 -0.147824
v 0.000000 7.860001 -0.333539
v 0.000000 7.733693 -0.235848
v 0.147824 8.660108 -0.147824
v 0.000000 8.660108 -0.209055
v -0.000000 7.963639 0.202064
v -0.142881 7.963639 0.142881
v 0.142881 7.963639 0.142881
v -0.202064 7.963639 -0.000000
v 0.142881 7.963639 -0.142881
v 0.202064 7.963639 0.000000
v -0.142881 7.963639 -0.142881
v 0.000000 7.963639 -0.202064
v -0.000000 8.204697 0.203681
v -0.000000 8.263991 0.205079
v -0.000000 8.403285 0.206477
v -0.000000 8.461561 0.207876
v 0.144024 8.124698 0.144024
v 0.145013 8.263991 0.145013
v 0.146001 8.403285 0.146001
v 0.146990 8.542579 0.146990
v 0.144024 8.204697 -0.144024
v 0.145013 8.263991 -0.145013
v 0.146002 8.403285 -0.146002
v 0.146990 8.461561 -0.146990
v -0.144024 8.124698 -0.144024
v -0.145013 8.263991 -0.145013
v -0.146002 8.403285 -0.146002
v -0.146990 8.542579 -0.146990
v -0.146990 8.461562 0.146990
v -0.146002 8.403285 0.146001
v -0.145013 8.263991 0.145013
v -0.144024 8.204698 0.144024
v -0.207876 8.542580 -0.000000
v -0.206477 8.403285 -0.000000
v -0.205079 8.263991 -0.000000
v -0.203681 8.124698 -0.000000
v 0.207876 8.542580 -0.000000
v 0.206477 8.403285 -0.000000
v 0.205079 8.263991 -0.000000
v 0.203681 8.124698 -0.000000
v 0.000000 8.461562 -0.207876
v 0.000000 8.403285 -0.206477
v 0.000000 8.263991 -0.205079
v 0.000000 8.204698 -0.203681
v -0.075719 8.122850 0.386482
v -0.075719 8.262145 0.387880
v -0.075719 8.401438 0.389278
v -0.075719 8.540731 0.390676
v 0.219743 8.122850 -0.326825
v 0.220731 8.262145 -0.327814
v 0.221720 8.401438 -0.328802
v 0.222709 8.540731 -0.329791
v -0.222709 8.540732 0.329791
v -0.221720 8.401438 0.328802
v -0.220731 8.262145 0.327814
v -0.219743 8.122851 0.326825
v 0.075719 8.540732 -0.390676
v 0.075719 8.401438 -0.389278
v 0.075719 8.262145 -0.387880
v 0.075719 8.122851 -0.386482
v -0.205137 8.044168 0.205137
v -0.290108 8.044168 -0.000000
v 0.290107 8.044168 0.000000
v 0.000000 8.044168 -0.290108
v -0.000000 8.044168 0.290108
v 0.205137 8.044168 0.205137
v 0.205137 8.044168 -0.205137
v -0.205137 8.044168 -0.205137
v -0.000000 8.638739 0.281935
v 0.199358 8.638739 0.199358
v 0.199358 8.638739 -0.199358
v -0.199358 8.638739 -0.199358
v -0.199358 8.638739 0.199358
v -0.281935 8.638739 -0.000000
v 0.281935 8.638739 -0.000000
v 0.000000 8.638739 -0.281935
vn -0.6387 0.4292 0.6387
vn -0.5459 0.6356 0.5459
vn -0.0000 0.6356 0.7720
vn -0.0000 0.4292 0.9032
vn -0.0000 0.4167 0.9091
vn -0.6428 0.4167 0.6428
vn -0.9032 0.4292 -0.0000
vn -0.7720 0.6356 -0.0000
vn -0.4886 0.7228 0.4886
vn -0.0000 0.7228 0.6910
vn 0.5459 0.6356 0.5459
vn 0.6387 0.4292 0.6387
vn -0.9091 0.4167 -0.0000
vn 0.6428 0.4167 0.6428
vn -0.7071 -0.0029 0.7071
vn -0.0000 -0.0029 1.0000
vn -0.6387 0.4292 -0.6387
vn -0.5459 0.6356 -0.5459
vn -0.6910 0.7228 -0.0000
vn -0.7055 -0.0665 0.7055
vn -0.0000 -0.0665 0.9978
vn 0.4886 0.7228 0.4886
vn 0.7720 0.6356 -0.0000
vn 0.9032 0.4292 -0.0000
vn -0.6428 0.4167 -0.6428
vn -1.0000 -0.0029 -0.0000
vn 0.9091 0.4167 -0.0000
vn 0.7071 -0.0029 0.7071
vn -0.0000 0.4292 -0.9032
vn -0.0000 0.6356 -0.7720
vn -0.4886 0.7228 -0.4886
vn -0.9978 -0.0665 -0.0000
vn -0.5510 -0.6268 0.5510
vn -0.0000 -0.6268 0.7792
vn 0.7055 -0.0665 0.7055
vn 0.6910 0.7228 -0.0000
vn 0.5459 0.6356 -0.5459
vn 0.6387 0.4292 -0.6387
vn -0.0000 0.4167 -0.9091
vn -0.7071 -0.0029 -0.7071
vn 0.6428 0.4167 -0.6428
vn 1.0000 -0.0029 -0.0000
vn -0.0000 0.7228 -0.6910
vn -0.7055 -0.0665 -0.7055
vn -0.7792 -0.6268 -0.0000
vn -0.5109 0.6914 0.5109
vn -0.0000 0.6914 0.7225
vn 0.5510 -0.6268 0.5510
vn 0.9978 -0.0665 -0.0000
vn 0.4886 0.7228 -0.4886
vn -0.0000 -0.0029 -1.0000
vn 0.7071 -0.0029 -0.7071
vn -0.0000 -0.0665 -0.9978
vn -0.5510 -0.6268 -0.5510
vn -0.7225 0.6914 -0.0000
vn -0.0000 0.7323 0.6810
vn -0.4816 0.7323 0.4816
vn 0.5109 0.6914 0.5109
vn 0.7792 -0.6268 -0.0000
vn 0.7055 -0.0665 -0.7055
vn -0.0000 -0.6268 -0.7792
vn -0.5109 0.6914 -0.5109
vn -0.6810 0.7323 -0.0000
vn -0.0000 0.7071 0.7071
vn -0.5000 0.7071 0.5000
vn 0.4816 0.7323 0.4816
vn 0.7225 0.6914 -0.0000
vn 0.5510 -0.6268 -0.5510
vn -0.0000 0.6914 -0.7225
vn -0.4816 0.7323 -0.4816
vn -0.7071 0.7071 -0.0000
vn -0.0000 0.1149 0.9934
vn -0.7024 0.1149 0.7024
vn 0.5000 0.7071 0.5000
vn 0.6810 0.7323 -0.0000
vn 0.5109 0.6914 -0.5109
vn -0.0000 0.7323 -0.6810
vn -0.5000 0.7071 -0.5000
vn -0.9934 0.1149 -0.0000
vn -0.0000 0.2857 0.9583
vn -0.6776 0.2857 0.6776
vn 0.7024 0.1149 0.7024
vn 0.7071 0.7071 -0.0000
vn 0.4816 0.7323 -0.4816
vn -0.0000 0.7071 -0.7071
vn -0.7024 0.1149 -0.7024
vn -0.9583 0.2857 -0.0000
vn -0.0000 0.6657 0.7463
vn -0.5277 0.6657 0.5277
vn 0.6776 0.2857 0.6776
vn 0.9934 0.1149 -0.0000
vn 0.5000 0.7071 -0.5000
vn -0.0000 0.1149 -0.9934
vn -0.6776 0.2857 -0.6776
vn -0.7463 0.6657 -0.0000
vn -0.0000 -0.4645 0.8856
vn -0.6262 -0.4645 0.6262
vn 0.5277 0.6657 0.5277
vn 0.9583 0.2857 -0.0000
vn 0.7024 0.1149 -0.7024
vn -0.0000 0.2857 -0.9583
vn -0.5277 0.6657 -0.5277
vn -0.8856 -0.4645 -0.0000
vn 0.8856 -0.4645 -0.0000
vn 0.6262 -0.4645 0.6262
vn -0.6262 -0.4645 -0.6262
vn -0.0000 -0.4645 -0.8856
vn 0.6262 -0.4645 -0.6262
vn 0.7463 0.6657 -0.0000
vn 0.6776 0.2857 -0.6776
vn -0.0000 0.6657 -0.7463
vn 0.5277 0.6657 -0.5277
vn -0.0000 -0.8065 0.5913
vn -0.0000 0.1048 0.9945
vn -0.7032 0.1048 0.7032
vn -0.4181 -0.8065 0.4181
vn 0.4181 -0.8065 0.4181
vn 0.7032 0.1048 0.7032
vn 0.0321 0.3491 0.9365
vn -0.0000 0.9125 0.4090
vn -0.2892 0.9125 0.2892
vn -0.6849 0.3491 0.6395
vn -0.9945 0.1048 -0.0000
vn -0.5913 -0.8065 -0.0000
vn 0.5913 -0.8065 -0.0000
vn 0.9945 0.1048 -0.0000
vn 0.6924 0.3044 0.6542
vn 0.2892 0.9125 0.2892
vn -0.0000 1.0000 -0.0000
vn -0.4090 0.9125 -0.0000
vn -0.9522 0.3044 -0.0270
vn -0.7032 0.1048 -0.7032
vn -0.4181 -0.8065 -0.4181
vn 0.4181 -0.8065 -0.4181
vn 0.7032 0.1048 -0.7032
vn 0.9522 0.3044 0.0270
vn 0.4090 0.9125 -0.0000
vn -0.2892 0.9125 -0.2892
vn -0.6924 0.3044 -0.6542
vn -0.0000 0.1048 -0.9945
vn -0.0000 -0.8065 -0.5913
vn 0.6849 0.3491 -0.6396
vn 0.2892 0.9125 -0.2892
vn -0.0000 0.9125 -0.4090
vn -0.0321 0.3491 -0.9365
vn -0.0000 0.0457 -0.9990
vn 0.7064 0.0457 -0.7064
vn -0.7064 0.0457 -0.7064
vn 0.9990 0.0457 -0.0000
vn -0.9990 0.0457 -0.0000
vn 0.7064 0.0457 0.7064
vn -0.7064 0.0457 0.7064
vn -0.0000 0.0457 0.9990
vn -0.0294 -0.1152 -0.9929
vn -0.5238 0.0054 -0.8518
vn 0.9727 0.0054 -0.2319
vn 0.7228 -0.1152 -0.6813
vn 1.0000 -0.0085 0.0007
vn 0.6933 -0.6894 -0.2100
vn 0.9240 -0.0098 -0.3824
vn -0.7075 -0.0085 -0.7066
vn -0.3830 -0.0098 -0.9237
vn -0.3417 -0.6894 -0.6387
vn 0.5238 0.0054 0.8518
vn 0.7075 -0.0085 0.7066
vn 0.3830 -0.0098 0.9237
vn 0.3417 -0.6894 0.6387
vn -0.7215 -0.0596 -0.6899
vn -0.6707 0.4119 -0.6169
vn -0.7065 -0.0110 -0.7076
vn -0.7077 -0.0111 -0.7065
vn -0.7066 -0.0086 -0.7075
vn -0.6884 -0.3377 -0.6419
vn -0.5161 0.0417 -0.8555
vn 0.9105 0.4119 0.0380
vn 0.9980 -0.0596 0.0224
vn 0.9999 -0.0110 -0.0008
vn 1.0000 -0.0086 -0.0006
vn 0.9999 -0.0111 0.0008
vn 0.9699 0.0417 -0.2400
vn 0.9407 -0.3377 0.0329
vn -0.9980 -0.0596 -0.0223
vn -0.9105 0.4119 -0.0380
vn -0.9999 -0.0110 0.0008
vn -0.9999 -0.0111 -0.0008
vn -0.9407 -0.3377 -0.0329
vn 0.6707 0.4119 0.6169
vn 0.7215 -0.0596 0.6899
vn 0.7065 -0.0110 0.7076
vn 0.7077 -0.0111 0.7065
vn 0.6884 -0.3377 0.6419
vn -0.7228 -0.1152 0.6813
vn -0.9727 0.0054 0.2319
vn -1.0000 -0.0085 -0.0007
vn -1.0000 -0.0086 0.0006
vn -0.9699 0.0417 0.2400
vn 0.0294 -0.1152 0.9929
vn 0.7066 -0.0086 0.7075
vn 0.5161 0.0417 0.8555
vn -0.6933 -0.6894 0.2100
vn -0.3824 -0.0098 -0.9239
vn -0.3401 0.6801 -0.6495
vn 0.9237 -0.0098 -0.3829
vn 0.6997 0.6801 -0.2187
vn -0.9240 -0.0098 0.3824
vn 0.3824 -0.0098 0.9239
vn -0.9237 -0.0098 0.3829
vn 0.3401 0.6801 0.6495
vn -0.6997 0.6801 0.2187
s 1
usemtl White_Pieces.001
f 1//1 2//2 3//3 4//4
f 1//1 4//4 5//5 6//6
f 7//7 8//8 2//2 1//1
f 9//9 10//10 3//3 2//2
f 4//4 3//3 11//11 12//12
f 7//7 1//1 6//6 13//13
f 4//4 12//12 14//14 5//5
f 15//15 6//6 5//5 16//16
f 17//17 18//18 8//8 7//7
f 19//19 9//9 2//2 8//8
f 20//20 21//21 10//10 9//9
f 10//10 22//22 11//11 3//3
f 12//12 11//11 23//23 24//24
f 17//17 7//7 13//13 25//25
f 26//26 13//13 6//6 15//15
f 12//12 24//24 27//27 14//14
f 16//16 5//5 14//14 28//28
f 29//29 30//30 18//18 17//17
f 31//31 19//19 8//8 18//18
f 32//32 20//20 9//9 19//19
f 33//33 34//34 21//21 20//20
f 21//21 35//35 22//22 10//10
f 22//22 36//36 23//23 11//11
f 24//24 23//23 37//37 38//38
f 29//29 17//17 25//25 39//39
f 40//40 25//25 13//13 26//26
f 24//24 38//38 41//41 27//27
f 28//28 14//14 27//27 42//42
f 38//38 37//37 30//30 29//29
f 43//43 31//31 18//18 30//30
f 44//44 32//32 19//19 31//31
f 45//45 33//33 20//20 32//32
f 46//46 47//47 34//34 33//33
f 34//34 48//48 35//35 21//21
f 35//35 49//49 36//36 22//22
f 36//36 50//50 37//37 23//23
f 38//38 29//29 39//39 41//41
f 51//51 39//39 25//25 40//40
f 42//42 27//27 41//41 52//52
f 50//50 43//43 30//30 37//37
f 53//53 44//44 31//31 43//43
f 54//54 45//45 32//32 44//44
f 55//55 46//46 33//33 45//45
f 56//56 47//47 46//46 57//57
f 47//47 58//58 48//48 34//34
f 48//48 59//59 49//49 35//35
f 49//49 60//60 50//50 36//36
f 52//52 41//41 39//39 51//51
f 60//60 53//53 43//43 50//50
f 61//61 54//54 44//44 53//53
f 62//62 55//55 45//45 54//54
f 57//57 46//46 55//55 63//63
f 64//64 56//56 57//57 65//65
f 66//66 58//58 47//47 56//56
f 58//58 67//67 59//59 48//48
f 59//59 68//68 60//60 49//49
f 68//68 61//61 53//53 60//60
f 69//69 62//62 54//54 61//61
f 63//63 55//55 62//62 70//70
f 65//65 57//57 63//63 71//71
f 72//72 64//64 65//65 73//73
f 74//74 66//66 56//56 64//64
f 75//75 67//67 58//58 66//66
f 67//67 76//76 68//68 59//59
f 76//76 69//69 61//61 68//68
f 70//70 62//62 69//69 77//77
f 71//71 63//63 70//70 78//78
f 73//73 65//65 71//71 79//79
f 80//80 72//72 73//73 81//81
f 82//82 74//74 64//64 72//72
f 83//83 75//75 66//66 74//74
f 84//84 76//76 67//67 75//75
f 77//77 69//69 76//76 84//84
f 78//78 70//70 77//77 85//85
f 79//79 71//71 78//78 86//86
f 81//81 73//73 79//79 87//87
f 88//88 80//80 81//81 89//89
f 90//90 82//82 72//72 80//80
f 91//91 83//83 74//74 82//82
f 92//92 84//84 75//75 83//83
f 85//85 77//77 84//84 92//92
f 86//86 78//78 85//85 93//93
f 87//87 79//79 86//86 94//94
f 89//89 81//81 87//87 95//95
f 96//96 88//88 89//89 97//97
f 98//98 90//90 80//80 88//88
f 99//99 91//91 82//82 90//90
f 100//100 92//92 83//83 91//91
f 93//93 85//85 92//92 100//100
f 94//94 86//86 93//93 101//101
f 95//95 87//87 94//94 102//102
f 97//97 89//89 95//95 103//103
f 104//104 105//105 96//96 97//97 103//103 106//106 107//107 108//108
f 105//105 98//98 88//88 96//96
f 109//109 99//99 90//90 98//98
f 110//110 100//100 91//91 99//99
f 101//101 93//93 100//100 110//110
f 102//102 94//94 101//101 111//111
f 103//103 95//95 102//102 106//106
f 108//108 112//112 109//109 104//104
f 104//104 109//109 98//98 105//105
f 106//106 102//102 111//111 107//107
f 107//107 111//111 112//112 108//108
f 112//112 110//110 99//99 109//109
f 111//111 101//101 110//110 112//112
f 113//113 114//114 115//115 116//116
f 16//16 113//113 116//116 15//15
f 117//117 118//118 114//114 113//113
f 202//119 119//120 120//121 206//122
f 116//116 115//115 121//123 122//124
f 28//28 117//117 113//113 16//16
f 15//15 116//116 122//124 26//26
f 123//125 124//126 118//118 117//117
f 203//127 125//128 119//120 202//119
f 119//120 126//129 120//121
f 206//122 120//121 127//130 207//131
f 122//124 121//123 128//132 129//133
f 42//42 123//125 117//117 28//28
f 26//26 122//124 129//133 40//40
f 130//134 131//135 124//126 123//125
f 208//136 132//137 125//128 203//127
f 125//128 126//129 119//120
f 120//121 126//129 127//130
f 207//131 127//130 133//138 205//139
f 129//133 128//132 134//140 135//141
f 52//52 130//134 123//125 42//42
f 40//40 129//133 135//141 51//51
f 135//141 134//140 131//135 130//134
f 204//142 136//143 132//137 208//136
f 132//137 126//129 125//128
f 127//130 126//129 133//138
f 205//139 133//138 137//144 209//145
f 51//51 135//141 130//134 52//52
f 209//145 137//144 136//143 204//142
f 136//143 126//129 132//137
f 133//138 126//129 137//144
f 137//144 126//129 136//143
f 134//140 145//146 142//147 131//135
f 128//132 144//148 145//146 134//140
f 131//135 142//147 143//149 124//126
f 121//123 141//150 144//148 128//132
f 124//126 143//149 140//151 118//118
f 115//115 139//152 141//150 121//123
f 118//118 140//151 138//153 114//114
f 114//114 138//153 139//152 115//115
f 197//154 177//155 154//156 200//157
f 155//158 154//156 182//159 183//160
f 177//155 176//161 192//162 193//163
f 146//164 147//165 179//166 178//167
f 201//168 158//169 177//155 197//154
f 158//169 159//170 176//161 177//155
f 159//170 160//171 175//172 176//161
f 160//171 161//173 174//174 175//172
f 200//157 154//156 173//175 196//176
f 154//156 155//158 172//177 173//175
f 155//158 156//178 171//179 172//177
f 156//178 157//180 170//181 171//179
f 195//182 169//183 158//169 201//168
f 169//183 168//184 159//170 158//169
f 168//184 167//185 160//171 159//170
f 167//185 166//186 161//173 160//171
f 196//176 173//175 150//187 199//188
f 173//175 172//177 151//189 150//187
f 172//177 171//179 152//190 151//189
f 171//179 170//181 153//191 152//190
f 194//192 165//193 169//183 195//182
f 165//193 164//194 168//184 169//183
f 164//194 163//195 167//185 168//184
f 163//195 162//196 166//186 167//185
f 199//188 150//187 146//164 198//197
f 150//187 151//189 147//165 146//164
f 151//189 152//190 148//198 147//165
f 152//190 153//191 149//199 148//198
f 198//197 146//164 165//193 194//192
f 165//193 146//164 178//167 189//200
f 176//161 175//172 191//201 192//162
f 175//172 174//174 190//202 191//201
f 193//163 192//162 183//160 182//159
f 192//162 191//201 184//203 183//160
f 191//201 190//202 185//204 184//203
f 178//167 179//166 188//205 189//200
f 179//166 180//206 187//207 188//205
f 180//206 181//208 186//209 187//207
f 147//165 148//198 180//206 179//166
f 162//196 163//195 187//207 186//209
f 154//156 177//155 193//163 182//159
f 156//178 155//158 183//160 184//203
f 148//198 149//199 181//208 180//206
f 163//195 164//194 188//205 187//207
f 157//180 156//178 184//203 185//204
f 149//199 162//196 186//209 181//208
f 164//194 165//193 189//200 188//205
f 174//174 157//180 185//204 190//202
f 138//153 198//197 194//192 139//152
f 140//151 199//188 198//197 138//153
f 139//152 194//192 195//182 141//150
f 143//149 196//176 199//188 140//151
f 141//150 195//182 201//168 144//148
f 142//147 200//157 196//176 143//149
f 144//148 201//168 197//154 145//146
f 145//146 197//154 200//157 142//147
f 174//174 209//145 204//142 157//180
f 161//173 205//139 209//145 174//174
f 157//180 204//142 208//136 170//181
f 166//186 207//131 205//139 161//173
f 170//181 208//136 203//127 153//191
f 162//196 206//122 207//131 166//186
f 153//191 203//127 202//119 149//199
f 149//199 202//119 206//122 162//196
