# Blender 4.0.2
# www.blender.org
mtllib w_rook.mtl
o LPRook.001
v -0.782697 3.885975 -0.000000
v -0.553450 3.885975 -0.553450
v 0.000000 3.885975 -0.782697
v 0.553450 3.885975 -0.553450
v 0.782697 3.885975 0.000000
v 0.553450 3.885975 0.553450
v -0.000001 3.885975 0.782697
v -0.553451 3.885975 0.553449
v -1.322830 1.060535 -0.000000
v -0.935382 1.060535 -0.935382
v 0.000000 1.060535 -1.322830
v 0.935383 1.060535 -0.935382
v 1.322831 1.060535 0.000000
v 0.935382 1.060535 0.935383
v -0.000001 1.060535 1.322830
v -0.935383 1.060535 0.935381
v -1.343877 0.380113 -0.000000
v -1.500000 0.000000 -0.000000
v -1.060660 0.000000 -1.060660
v -0.950264 0.380113 -0.950265
v 0.000000 0.000000 -1.500000
v 0.000000 0.380112 -1.343877
v 1.060661 0.000000 -1.060660
v 0.950265 0.380112 -0.950265
v 1.500000 0.000000 0.000001
v 1.343878 0.380112 0.000001
v 1.060660 0.000000 1.060661
v 0.950264 0.380112 0.950265
v -0.000001 0.000000 1.500000
v -0.000001 0.380112 1.343877
v -1.060661 0.000000 1.060659
v -0.950266 0.380113 0.950263
v -1.144000 0.461823 -0.000000
v -0.808930 0.461823 -0.808931
v 0.000000 0.461823 -1.144001
v 0.808931 0.461823 -0.808931
v 1.144001 0.461823 0.000000
v 0.808930 0.461823 0.808931
v -0.000001 0.461823 1.144001
v -0.808931 0.461823 0.808930
v -1.419093 0.883126 -0.000000
v -1.003450 0.883126 -1.003451
v 0.000000 0.883126 -1.419094
v 1.003451 0.883126 -1.003451
v 1.419094 0.883126 0.000001
v 1.003451 0.883126 1.003452
v -0.000001 0.883126 1.419094
v -1.003452 0.883126 1.003449
v -0.965955 1.648597 -0.000000
v -0.683033 1.648597 -0.683033
v 0.000000 1.648597 -0.965955
v 0.683034 1.648597 -0.683033
v 0.965955 1.648597 0.000000
v 0.683033 1.648597 0.683034
v -0.000001 1.648597 0.965955
v -0.683034 1.648597 0.683032
v 0.769296 4.045033 -0.769296
v 0.000000 4.045033 -1.087949
v 1.087949 4.045033 0.000000
v -0.769295 4.045033 -0.769296
v -1.087948 4.045033 -0.000000
v 0.769296 4.045033 0.769296
v -0.000001 4.045033 1.087948
v -0.769297 4.045033 0.769295
v 0.554993 4.389656 -0.554993
v 0.000000 4.389656 -0.784879
v 0.784879 4.389656 0.000000
v -0.554993 4.389656 -0.554993
v -0.784878 4.389656 0.000000
v 0.554993 4.389656 0.554993
v -0.000001 4.389656 0.784879
v -0.554994 4.389656 0.554992
v 0.769296 4.389656 -0.769296
v 0.000000 4.389656 -1.087949
v 1.087949 4.389656 0.000000
v -0.769295 4.389656 -0.769296
v -1.087948 4.389656 -0.000000
v 0.769296 4.389656 0.769296
v -0.000001 4.389656 1.087948
v -0.769297 4.389656 0.769295
v 0.769296 4.619656 -0.769296
v 0.000000 4.619656 -1.087949
v -0.769295 4.619656 -0.769296
v -1.087948 4.619656 -0.000000
v 0.769296 4.619656 0.769296
v 1.087949 4.619656 0.000000
v -0.769297 4.619656 0.769295
v -0.000001 4.619656 1.087948
v 0.554993 4.619656 -0.554993
v 0.000000 4.619656 -0.784879
v -0.554993 4.619656 -0.554993
v -0.784878 4.619656 0.000000
v 0.554993 4.619656 0.554993
v 0.784879 4.619656 0.000000
v -0.554994 4.619656 0.554992
v -0.000001 4.619656 0.784879
v 0.554993 4.219656 -0.554993
v 0.000000 4.219656 -0.784879
v 0.784879 4.219656 0.000000
v -0.554993 4.219656 -0.554993
v -0.784878 4.219656 0.000000
v 0.554993 4.219656 0.554993
v -0.000001 4.219656 0.784879
v -0.554994 4.219656 0.554992
vn -0.6142 0.4955 -0.6142
vn -0.6684 0.3263 -0.6684
vn -0.0000 0.3263 -0.9453
vn -0.0000 0.4955 -0.8686
vn -0.0000 0.4955 0.8686
vn -0.0000 0.3263 0.9453
vn -0.6684 0.3263 0.6684
vn -0.6142 0.4955 0.6142
vn 0.6142 0.4955 0.6142
vn 0.6684 0.3263 0.6684
vn -0.8686 0.4955 -0.0000
vn -0.9453 0.3263 -0.0000
vn 0.6205 -0.4795 0.6205
vn 0.5292 0.6632 0.5292
vn -0.0000 0.6632 0.7484
vn -0.0000 -0.4795 0.8775
vn -0.5292 0.6632 0.5292
vn -0.6571 0.3693 0.6571
vn -0.9293 0.3693 -0.0000
vn -0.7484 0.6632 -0.0000
vn -0.6571 0.3693 -0.6571
vn -0.5292 0.6632 -0.5292
vn 0.8686 0.4955 -0.0000
vn 0.9453 0.3263 -0.0000
vn -0.7066 -0.0364 -0.7066
vn -0.0000 -0.0364 -0.9993
vn -0.9993 -0.0364 -0.0000
vn 0.6142 0.4955 -0.6142
vn 0.6684 0.3263 -0.6684
vn 0.7066 -0.0364 -0.7066
vn 0.8775 -0.4795 -0.0000
vn 0.7484 0.6632 -0.0000
vn 0.6571 0.3693 0.6571
vn -0.0000 0.3693 0.9293
vn -0.7066 -0.0364 0.7066
vn 0.9993 -0.0364 -0.0000
vn 0.7066 -0.0364 0.7066
vn -0.0000 -0.0364 0.9993
vn 0.6205 -0.4795 -0.6205
vn 0.5292 0.6632 -0.5292
vn 0.6571 0.3693 -0.6571
vn 0.9293 0.3693 -0.0000
vn -0.6205 -0.4795 -0.6205
vn -0.0000 0.6632 -0.7484
vn -0.0000 -0.4795 -0.8775
vn -0.0000 0.3693 -0.9293
vn -0.8775 -0.4795 -0.0000
vn -0.6205 -0.4795 0.6205
vn -0.8345 -0.5510 -0.0000
vn -0.5901 -0.5510 -0.5901
vn -0.5901 -0.5510 0.5901
vn -0.0000 -0.5510 -0.8345
vn 0.5901 -0.5510 -0.5901
vn -0.6244 -0.4693 0.6244
vn -0.8830 -0.4693 -0.0000
vn -0.0000 -0.5510 0.8345
vn 0.8345 -0.5510 -0.0000
vn 0.5901 -0.5510 0.5901
vn -0.8159 0.2554 0.5187
vn -0.9437 0.2554 0.2102
vn 0.6244 -0.4693 0.6244
vn -0.0000 -0.4693 0.8830
vn -0.6244 -0.4693 -0.6244
vn -0.0000 -0.4693 -0.8830
vn 0.8830 -0.4693 -0.0000
vn 0.6244 -0.4693 -0.6244
vn 0.2940 0.3742 -0.8795
vn 0.4140 0.3742 -0.8298
vn -0.0000 0.6303 -0.7764
vn 0.5490 0.6303 -0.5490
vn 0.5187 0.2554 0.8159
vn 0.2102 0.2554 0.9437
vn -0.5187 0.2554 -0.8159
vn 0.8159 0.2554 -0.5187
vn 0.9437 0.2554 -0.2102
vn -0.2102 0.2554 -0.9437
vn 0.6646 0.6009 -0.4441
vn 0.4605 0.5595 0.6892
vn -0.2940 0.3742 0.8795
vn -0.8298 0.3742 -0.4140
vn 0.8795 0.3742 0.2940
vn -0.4140 0.3742 0.8298
vn -0.4605 0.5595 -0.6892
vn 0.8129 0.5595 -0.1617
vn -0.1559 0.6009 -0.7840
vn -0.8795 0.3742 -0.2940
vn 0.1617 0.5595 0.8129
vn -0.7840 0.6009 0.1559
vn 0.8298 0.3742 0.4140
vn -0.6646 0.6009 0.4441
vn 0.1559 0.6009 0.7840
vn 0.4441 0.6009 0.6646
vn 0.7840 0.6009 -0.1559
vn -0.1617 0.5595 -0.8129
vn -0.6892 0.5595 0.4605
vn -0.4441 0.6009 -0.6646
vn 0.6892 0.5595 -0.4605
vn -0.8129 0.5595 0.1617
vn -0.5490 0.6303 0.5490
vn -0.0000 0.6303 0.7764
vn 0.5490 0.6303 0.5490
vn 0.7764 0.6303 -0.0000
vn -0.5490 0.6303 -0.5490
vn -0.7764 0.6303 -0.0000
s 1
usemtl White_Pieces.001
f 10//1 50//2 51//3 11//4
f 15//5 55//6 56//7 16//8
f 14//9 54//10 55//6 15//5
f 9//11 49//12 50//2 10//1
f 16//8 56//7 49//12 9//11
f 27//13 28//14 30//15 29//16
f 32//17 40//18 33//19 17//20
f 17//20 33//19 34//21 20//22
f 13//23 53//24 54//10 14//9
f 42//25 10//1 11//4 43//26
f 41//27 9//11 10//1 42//25
f 12//28 52//29 53//24 13//23
f 43//26 11//4 12//28 44//30
f 25//31 26//32 28//14 27//13
f 28//14 38//33 39//34 30//15
f 30//15 39//34 40//18 32//17
f 48//35 16//8 9//11 41//27
f 45//36 13//23 14//9 46//37
f 44//30 12//28 13//23 45//36
f 47//38 15//5 16//8 48//35
f 46//37 14//9 15//5 47//38
f 23//39 24//40 26//32 25//31
f 24//40 36//41 37//42 26//32
f 26//32 37//42 38//33 28//14
f 19//43 20//22 22//44 21//45
f 35//46 43//26 44//30 36//41
f 40//18 48//35 41//27 33//19
f 21//45 22//44 24//40 23//39
f 34//21 42//25 43//26 35//46
f 33//19 41//27 42//25 34//21
f 18//47 17//20 20//22 19//43
f 38//33 46//37 47//38 39//34
f 39//34 47//38 48//35 40//18
f 25//31 27//13 29//16 31//48 18//47 19//43 21//45 23//39
f 49//12 1//49 2//50 50//2
f 56//7 8//51 1//49 49//12
f 51//3 3//52 4//53 52//29
f 50//2 2//50 3//52 51//3
f 31//48 32//17 17//20 18//47
f 36//41 44//30 45//36 37//42
f 37//42 45//36 46//37 38//33
f 1//49 8//51 64//54 61//55
f 55//6 7//56 8//51 56//7
f 52//29 4//53 5//57 53//24
f 11//4 51//3 52//29 12//28
f 54//10 6//58 7//56 55//6
f 53//24 5//57 6//58 54//10
f 29//16 30//15 32//17 31//48
f 20//22 34//21 35//46 22//44
f 22//44 35//46 36//41 24//40
f 61//55 64//54 80//59 77//60
f 7//56 6//58 62//61 63//62
f 8//51 7//56 63//62 64//54
f 3//52 2//50 60//63 58//64
f 6//58 5//57 59//65 62//61
f 2//50 1//49 61//55 60//63
f 5//57 4//53 57//66 59//65
f 4//53 3//52 58//64 57//66
f 72//67 71//68 103//69 104//70
f 63//62 62//61 78//71 79//72
f 60//63 61//55 77//60 76//73
f 59//65 57//66 73//74 75//75
f 64//54 63//62 79//72 80//59
f 62//61 59//65 75//75 78//71
f 58//64 60//63 76//73 74//76
f 57//66 58//64 74//76 73//74
f 79//72 71//68 96//77 88//78
f 65//79 67//80 75//75 73//74
f 68//81 66//82 74//76 76//73
f 73//74 74//76 82//83 81//84
f 71//68 72//67 95//85 96//77
f 70//86 71//68 79//72 78//71
f 70//86 78//71 85//87 93//88
f 72//67 69//89 77//60 80//59
f 90//90 89//91 81//84 82//83
f 92//92 91//93 83//94 84//95
f 94//96 93//88 85//87 86//97
f 96//77 95//85 87//98 88//78
f 66//82 65//79 89//91 90//90
f 72//67 80//59 87//98 95//85
f 74//76 66//82 90//90 82//83
f 65//79 73//74 81//84 89//91
f 76//73 77//60 84//95 83//94
f 75//75 67//80 94//96 86//97
f 78//71 75//75 86//97 85//87
f 69//89 68//81 91//93 92//92
f 68//81 76//73 83//94 91//93
f 67//80 70//86 93//88 94//96
f 77//60 69//89 92//92 84//95
f 80//59 79//72 88//78 87//98
f 97//99 98//100 100//101 101//102 104//70 103//69 102//103 99//104
f 70//86 67//80 99//104 102//103
f 66//82 68//81 100//101 98//100
f 65//79 66//82 98//100 97//99
f 69//89 72//67 104//70 101//102
f 71//68 70//86 102//103 103//69
f 68//81 69//89 101//102 100//101
f 67//80 65//79 97//99 99//104
